<?xml version="1.0" standalone="no"?>
<!DOCTYPE svg PUBLIC "-//W3C//DTD SVG 20010904//EN"
 "http://www.w3.org/TR/2001/REC-SVG-20010904/DTD/svg10.dtd">
<svg version="1.0" xmlns="http://www.w3.org/2000/svg"
 width="1569.000000pt" height="1569.000000pt" viewBox="0 0 1569.000000 1569.000000"
 preserveAspectRatio="xMidYMid meet">
<metadata>
Created by potrace 1.14, written by Peter Selinger 2001-2017
</metadata>
<g transform="translate(0.000000,1569.000000) scale(0.100000,-0.100000)"
fill="#000000" stroke="none">
<path d="M8084 14209 c-2 -4 7 -23 21 -43 14 -20 25 -39 25 -41 0 -9 104 -171
114 -177 6 -5 7 -8 1 -8 -5 0 -1 -7 9 -15 11 -8 16 -15 12 -15 -5 0 0 -12 10
-27 10 -16 24 -40 32 -55 7 -16 18 -28 23 -28 5 0 9 -6 9 -13 0 -7 15 -35 33
-63 30 -48 41 -66 70 -116 6 -12 20 -31 30 -42 9 -11 17 -23 17 -27 0 -11 101
-173 112 -180 5 -3 9 -9 8 -13 -1 -4 0 -11 2 -17 3 -8 509 -12 1693 -14 930
-1 1706 -5 1725 -8 19 -4 60 -9 90 -11 30 -3 73 -8 95 -11 22 -4 69 -11 105
-16 108 -16 257 -50 405 -91 937 -265 1646 -896 1934 -1722 54 -154 100 -353
116 -506 3 -30 8 -68 11 -85 6 -44 5 -353 -2 -432 -6 -72 -48 -311 -65 -378
-6 -22 -11 -42 -12 -45 -1 -11 -76 -228 -97 -280 -86 -215 -267 -508 -435
-706 -84 -99 -269 -278 -374 -363 -92 -75 -371 -271 -385 -271 -4 0 -25 -11
-47 -25 -40 -26 -242 -129 -309 -157 -263 -114 -560 -204 -805 -243 -145 -23
-144 -23 -215 -31 -36 -4 -74 -8 -85 -10 -11 -1 -23 -3 -27 -3 -9 -1 3 -41 13
-41 5 0 9 -7 9 -15 0 -9 7 -18 15 -21 8 -4 13 -10 10 -14 -3 -4 3 -18 13 -31
10 -13 33 -50 51 -82 18 -31 38 -63 44 -70 7 -7 21 -30 32 -52 11 -21 29 -48
40 -58 11 -11 14 -17 7 -13 -13 8 105 -185 120 -195 6 -3 9 -9 8 -13 -3 -15
45 -86 62 -92 10 -3 42 -1 71 5 28 6 63 13 77 15 145 25 400 92 580 152 278
93 646 264 880 410 399 248 680 492 994 864 132 156 320 454 420 665 95 200
199 488 222 613 3 12 13 59 24 105 44 188 64 388 64 642 0 307 -29 542 -100
805 -14 52 -29 111 -34 132 -16 60 -95 267 -150 389 -279 625 -792 1187 -1430
1569 -631 378 -1354 581 -2155 605 -88 3 -187 8 -220 11 -79 9 -3506 11 -3511
3z"/>
<path d="M7759 14178 c-9 -18 -955 -1547 -2104 -3398 -1803 -2906 -2159 -3481
-2228 -3594 -7 -11 -35 -56 -63 -100 -202 -321 -396 -639 -399 -656 -2 -11
-50 -95 -106 -187 -56 -93 -109 -181 -119 -198 -9 -16 -36 -61 -60 -100 -94
-153 -437 -719 -465 -768 -5 -9 -46 -77 -91 -150 -86 -141 -475 -782 -504
-832 -10 -16 -50 -82 -89 -145 -39 -63 -74 -122 -78 -130 -4 -8 -32 -55 -63
-105 -31 -49 -59 -97 -63 -105 -4 -8 -27 -45 -50 -82 -23 -37 -97 -159 -164
-270 -67 -112 -163 -270 -214 -353 -50 -82 -99 -163 -109 -180 -9 -16 -95
-158 -190 -315 -95 -157 -180 -297 -189 -312 -9 -15 -92 -153 -186 -307 -93
-154 -180 -298 -193 -320 l-24 -41 523 2 523 3 218 365 c120 200 218 366 218
367 0 2 11 22 26 44 14 22 33 55 43 72 35 60 263 442 286 477 12 19 35 58 51
85 16 28 33 58 39 67 5 9 32 54 59 100 26 46 58 99 71 118 29 45 170 281 203
340 14 25 40 69 59 98 18 29 33 55 33 58 0 2 9 17 19 32 10 15 95 155 188 312
94 157 251 420 349 584 98 165 186 311 194 325 8 14 25 42 36 61 12 19 99 166
194 325 95 160 179 301 187 314 15 23 16 22 95 -85 890 -1209 1459 -2473 1538
-3419 9 -110 -1 -347 -24 -577 l-5 -48 2634 0 2634 0 5 53 c3 28 10 160 16
292 13 289 30 433 75 659 153 757 508 1555 1070 2406 249 376 565 794 832
1100 12 14 31 36 42 49 11 12 51 57 88 98 37 42 71 81 74 87 3 6 -137 245
-312 531 -320 523 -557 912 -1099 1800 -678 1111 -991 1624 -1133 1855 -82
135 -158 259 -168 277 -10 17 -30 51 -45 74 -15 24 -473 775 -1019 1669 -1030
1688 -1043 1710 -1048 1710 -2 0 -10 -15 -18 -32z m1866 -4642 c774 -1264
1409 -2306 1412 -2315 3 -9 13 -24 21 -33 7 -9 119 -189 248 -399 l234 -382
-108 -136 c-761 -957 -1364 -2042 -1652 -2974 -82 -262 -139 -507 -195 -834
l-6 -33 -1778 0 -1777 0 -28 168 c-32 190 -112 516 -181 737 -303 970 -909
2066 -1716 3099 -52 66 -53 69 -38 95 36 60 3241 5227 3248 5234 4 4 11 -444
14 -995 4 -552 10 -1283 14 -1625 6 -609 6 -623 -13 -623 -10 0 -72 -18 -137
-40 -538 -181 -935 -582 -1048 -1058 -75 -315 -22 -653 145 -936 244 -413 691
-694 1241 -782 149 -24 448 -25 600 -1 396 61 733 222 993 472 216 208 349
440 408 715 25 117 25 362 1 480 -78 369 -292 673 -635 903 -162 109 -427 221
-608 258 l-61 12 -6 866 c-4 476 -10 1222 -13 1656 -4 532 -3 787 4 780 5 -5
643 -1045 1417 -2309z m-1716 -1706 c433 -45 750 -339 751 -695 0 -92 -20
-170 -72 -275 -33 -68 -58 -102 -127 -170 -181 -180 -405 -260 -689 -247 -141
6 -230 27 -348 81 -210 98 -370 276 -419 471 -19 75 -19 214 0 285 78 292 371
515 725 550 41 4 76 8 76 9 1 0 47 -4 103 -9z"/>
<path d="M12683 6003 c-115 -130 -180 -207 -257 -303 -20 -25 -44 -54 -54 -65
-45 -49 -102 -124 -102 -133 0 -5 -7 -13 -16 -16 -9 -4 -14 -9 -11 -12 2 -3
-6 -17 -20 -32 -39 -43 -49 -56 -66 -82 -15 -24 -9 -35 284 -515 164 -269 303
-497 308 -505 5 -8 66 -107 134 -220 69 -113 143 -234 165 -270 76 -123 227
-371 272 -445 25 -42 101 -166 169 -278 68 -111 161 -263 206 -337 45 -74 126
-207 180 -295 54 -88 105 -172 114 -187 9 -15 77 -127 151 -248 74 -122 144
-235 154 -253 29 -49 44 -74 141 -232 50 -80 98 -160 109 -178 10 -18 26 -43
36 -57 l18 -25 531 0 c292 0 531 3 531 7 0 3 -34 61 -75 128 -41 67 -75 126
-75 131 0 5 -3 9 -8 9 -4 0 -18 20 -31 45 -13 26 -37 55 -53 66 -15 11 -28 27
-28 35 0 8 -3 14 -8 14 -4 0 -13 14 -21 32 -8 17 -21 39 -30 48 -9 9 -17 23
-19 30 -2 7 -16 32 -32 56 -17 23 -30 47 -30 53 0 6 -4 11 -10 11 -5 0 -10 4
-10 9 0 5 -21 43 -47 86 -60 97 -66 106 -147 240 -37 60 -70 112 -74 115 -4 3
-8 11 -10 19 -2 7 -16 33 -32 57 -17 23 -30 47 -30 51 0 5 -8 18 -17 29 -10
11 -27 36 -37 57 -11 20 -23 37 -28 37 -4 0 -7 3 -6 8 1 4 -5 18 -13 32 -76
121 -179 293 -179 300 0 5 -3 10 -7 12 -10 4 -73 107 -73 119 0 5 -3 9 -8 9
-4 0 -13 13 -20 28 -6 16 -20 37 -30 48 -9 11 -18 26 -20 34 -2 8 -8 20 -15
25 -7 6 -13 17 -15 25 -2 8 -10 22 -18 31 -8 8 -14 20 -14 25 0 6 -8 19 -18
30 -9 10 -23 30 -30 44 -6 14 -30 54 -52 89 -22 34 -40 67 -40 71 0 4 -6 13
-14 19 -8 7 -27 36 -42 64 -14 29 -30 54 -33 57 -7 5 -57 87 -74 120 -4 8 -16
29 -27 45 -11 17 -23 37 -27 45 -3 8 -10 17 -13 20 -6 4 -29 44 -65 111 -5 11
-13 19 -17 19 -5 0 -8 5 -8 10 0 12 -52 94 -63 98 -4 2 -5 7 -2 12 3 5 -1 15
-9 23 -8 7 -23 29 -33 48 -10 19 -31 53 -46 76 -15 24 -27 45 -27 47 0 6 -86
137 -100 154 -6 6 -8 12 -6 12 3 0 -15 31 -39 69 -25 38 -45 74 -45 80 0 5 -7
14 -16 19 -9 5 -15 11 -13 13 4 6 -82 149 -90 149 -4 0 -8 6 -8 13 0 8 -13 34
-29 58 -16 24 -34 53 -41 64 -15 25 -131 215 -161 264 -12 20 -25 43 -29 51
-4 8 -9 17 -13 20 -3 3 -32 50 -64 105 -33 55 -63 102 -68 103 -4 2 -8 8 -8
12 0 14 -130 224 -141 228 -5 2 -9 12 -9 21 0 10 -10 29 -22 43 -13 14 -24 32
-26 39 -2 8 -10 21 -18 30 -8 8 -14 21 -14 27 0 7 -4 12 -10 12 -5 0 -10 6
-10 13 0 6 -7 20 -14 30 -12 16 -19 11 -73 -50z"/>
</g>
</svg>
